<svg width="254" height="30" viewBox="0 0 254 30" fill="none" xmlns="http://www.w3.org/2000/svg">
<g clip-path="url(#clip0_2_23054)">
<path d="M62.2736 26.7679H58.6279V10.1437H62.2736V26.7679Z" fill="#F44E27"/>
<path d="M89.0877 13.3819V16.5075H85.9819C83.8199 16.5075 83.1438 17.7682 83.1438 19.8126V26.7767H79.5029V13.3914H83.1486V15.8395C83.5905 14.7276 84.9547 13.3914 86.7321 13.3914L89.0877 13.3819Z" fill="#F44E27"/>
<path d="M70.8881 13.0782C69.487 13.0782 68.1174 13.4888 66.9525 14.258C65.7876 15.0273 64.8797 16.1206 64.3437 17.3997C63.8076 18.6788 63.6675 20.0863 63.941 21.4442C64.2145 22.802 64.8893 24.0492 65.8802 25.028C66.8711 26.0068 68.1335 26.6733 69.5077 26.9431C70.8819 27.2129 72.3062 27.074 73.6005 26.5438C74.8948 26.0137 76.0009 25.1162 76.7789 23.9648C77.557 22.8134 77.972 21.4599 77.9715 20.0754C77.9715 19.1563 77.7883 18.2463 77.4323 17.3972C77.0763 16.5481 76.5545 15.7766 75.8967 15.1268C75.2389 14.477 74.458 13.9617 73.5986 13.6102C72.7393 13.2587 71.8182 13.0779 70.8881 13.0782ZM70.8881 23.8526C70.1321 23.8526 69.3931 23.631 68.7645 23.216C68.1359 22.801 67.646 22.2111 67.3567 21.5209C67.0673 20.8307 66.9917 20.0712 67.1391 19.3385C67.2866 18.6058 67.6507 17.9328 68.1853 17.4046C68.7198 16.8763 69.4009 16.5166 70.1424 16.3708C70.8839 16.2251 71.6524 16.2999 72.3509 16.5858C73.0493 16.8717 73.6463 17.3558 74.0663 17.9769C74.4864 18.5981 74.7105 19.3284 74.7105 20.0754C74.7105 21.0772 74.3078 22.0379 73.591 22.7463C72.8741 23.4546 71.9019 23.8526 70.8881 23.8526Z" fill="#F44E27"/>
<path d="M40.6322 13.3819H38.0974L33.8593 17.5699L29.6212 13.3819H27.0889V15.8867L31.327 20.0746L27.0889 24.2625V26.7672H29.6212L33.8593 22.5793L38.0974 26.7672H40.6322V24.2625L36.3941 20.0746L40.6322 15.8867V13.3819Z" fill="#F44E27"/>
<path d="M50.2448 13.0782C48.6465 13.0782 46.7497 14.0013 46.0736 15.0282V13.3757H42.4375V29.9999H46.0831V25.1132C46.7736 26.1496 48.6322 27.0655 50.252 27.0655C54.1628 27.0655 57.0965 23.9305 57.0965 20.066C57.0965 16.2015 54.1628 13.0782 50.2448 13.0782ZM50.0059 23.8526C49.2499 23.8526 48.5109 23.631 47.8823 23.216C47.2537 22.801 46.7637 22.2111 46.4744 21.5209C46.1851 20.8307 46.1094 20.0712 46.2569 19.3385C46.4044 18.6058 46.7685 17.9328 47.303 17.4046C47.8376 16.8763 48.5187 16.5166 49.2602 16.3708C50.0017 16.2251 50.7702 16.2999 51.4687 16.5858C52.1671 16.8717 52.7641 17.3558 53.1841 17.9769C53.6041 18.5981 53.8283 19.3284 53.8283 20.0754C53.8283 21.0772 53.4256 22.0379 52.7088 22.7463C51.9919 23.4546 51.0197 23.8526 50.0059 23.8526Z" fill="#F44E27"/>
<path d="M16.391 18.7655C19.5356 16.6828 22.1417 13.8999 23.9997 10.6407C25.8578 7.38154 26.9159 3.73697 27.089 0.00012207C23.3074 0.170729 19.619 1.21639 16.321 3.05293C13.023 4.88947 10.2075 7.46556 8.10115 10.5738C6.68676 10.3224 5.2347 10.3676 3.8391 10.7064C2.44351 11.0451 1.13554 11.6699 0 12.5403V14.2376C1.66518 14.2358 3.31438 14.5585 4.85317 15.1873C6.39196 15.8161 7.79011 16.7387 8.96757 17.9023C10.145 19.0658 11.0787 20.4474 11.715 21.9679C12.3514 23.4885 12.678 25.1182 12.6761 26.7636H14.4081C15.2867 25.6418 15.9171 24.3503 16.2587 22.9725C16.6003 21.5948 16.6454 20.1615 16.391 18.7655ZM18.0299 5.97511C18.6293 5.97465 19.2153 6.15004 19.7137 6.47905C20.2121 6.80805 20.6004 7.27586 20.8294 7.82319C21.0585 8.37051 21.1179 8.97271 21.0002 9.55346C20.8825 10.1342 20.593 10.6673 20.1683 11.0853C19.7437 11.5033 19.203 11.7872 18.6148 11.9012C18.0267 12.0152 17.4175 11.9541 16.8645 11.7256C16.3116 11.4971 15.8397 11.1116 15.5087 10.6178C15.1777 10.124 15.0026 9.54426 15.0054 8.95199C15.0086 8.16139 15.3286 7.40424 15.8955 6.8463C16.4623 6.28836 17.2298 5.97511 18.0299 5.97511Z" fill="#F44E27"/>
<path d="M6.6773 23.471C6.62637 22.6301 6.25245 21.8402 5.63193 21.2626C5.0114 20.685 4.19111 20.3634 3.33865 20.3634C2.48619 20.3634 1.66589 20.685 1.04537 21.2626C0.424844 21.8402 0.0509216 22.6301 0 23.471V26.776H3.34462C4.23167 26.776 5.08239 26.4278 5.70962 25.808C6.33686 25.1882 6.68924 24.3475 6.68924 23.471H6.6773Z" fill="#F44E27"/>
</g>
<defs>
<clipPath id="clip0_2_23054">
<rect width="254" height="30" fill="white"/>
</clipPath>
</defs>
</svg>
